<?xml version="1.0" encoding="UTF-8" standalone="no"?>
<!DOCTYPE svg PUBLIC "-//W3C//DTD SVG 1.1//EN" "http://www.w3.org/Graphics/SVG/1.1/DTD/svg11.dtd">
<svg xmlns="http://www.w3.org/2000/svg" version="1.1" viewBox="0.00 0.00 128.00 128.00">
<path fill="#ffffff" d="
  M 128.00 35.40
  L 128.00 92.75
  Q 126.22 106.54 112.50 106.54
  Q 79.89 106.54 47.28 106.52
  C 41.95 106.52 38.85 105.52 35.27 101.98
  Q 18.68 85.55 1.66 68.55
  Q 0.88 67.77 0.00 64.87
  L 0.00 63.02
  Q 0.95 60.16 1.66 59.45
  Q 18.94 42.21 35.51 25.76
  Q 39.93 21.38 45.73 21.38
  Q 77.37 21.39 111.89 21.42
  Q 116.83 21.42 120.23 23.03
  Q 127.04 26.25 128.00 35.40
  Z
  M 70.01 64.40
  Q 66.13 68.38 61.56 72.75
  C 58.78 75.40 57.29 78.85 60.42 82.00
  C 62.83 84.44 66.36 83.92 68.65 81.57
  Q 73.53 76.58 77.92 72.31
  Q 78.31 71.93 78.70 72.32
  Q 83.16 76.77 87.80 81.46
  C 93.89 87.62 101.98 79.54 95.48 73.26
  Q 90.84 68.77 86.36 64.21
  A 0.25 0.25 0.0 0 1 86.36 63.86
  Q 90.81 59.33 95.70 54.52
  C 101.82 48.52 93.92 40.59 87.98 46.44
  Q 83.45 50.90 78.71 55.71
  Q 78.27 56.15 77.84 55.71
  Q 73.23 51.07 68.54 46.41
  C 62.72 40.62 55.00 48.65 60.31 53.95
  Q 65.22 58.84 70.00 63.61
  Q 70.40 64.00 70.01 64.40
  Z"
/>
</svg>
